<svg height='100px' width='100px'  fill="#ffffff" xmlns="http://www.w3.org/2000/svg" xmlns:xlink="http://www.w3.org/1999/xlink" version="1.1" x="0px" y="0px" viewBox="0 0 100 100" enable-background="new 0 0 100 100" xml:space="preserve"><path d="M70.19,54.221c-7.172-7.261-16.2-5.14-24.932-3.087c-2.147,0.507-3.98,0.269-5.452-0.701  c-2.778-1.832-3.489-5.714-3.496-5.751c-0.087-0.511-0.553-0.867-1.068-0.827c-0.517,0.043-0.915,0.473-0.917,0.992  c-0.003,0.662,0.004,16.273,7.153,22.288c4.837,4.069,10.607,3.56,15.696,3.113c4.085-0.362,7.613-0.672,9.946,1.318  c2.493,2.127,3.251,4.769,2.192,7.641C67.31,84.642,59.527,89.41,52.66,89.41c-9.336,0-15.804-2.271-19.775-6.941  c-6.732-7.921-5.47-22.287-3.347-35.295c2.608-15.967,9.882-28.819,13.339-34.224c-0.041,3.551,0.037,7.484,0.537,8.392  c0.546,0.991,2.247,1.649,4.977,2.639c1.109,0.402,2.257,0.819,2.751,1.12c1.001,0.609,2.375,2.571,2.82,3.276  c0.121,0.191,0.303,0.336,0.516,0.41c0.182,0.063,4.462,1.557,7.148,2.338c0.219,0.064,0.356,0.125,0.44,0.169  c-0.295,0.511-1.553,1.46-2.117,1.888c-0.31,0.233-0.599,0.453-0.84,0.649c-1.267,1.037-4.513,1.377-8.476,0.891  c-0.549-0.069-1.047,0.323-1.115,0.871c-0.067,0.548,0.322,1.047,0.871,1.115c2.715,0.333,7.624,0.606,9.987-1.329  c0.223-0.182,0.491-0.385,0.777-0.601c1.577-1.192,3.209-2.424,2.938-3.895c-0.145-0.788-0.786-1.352-1.907-1.678  c-2.219-0.646-5.664-1.827-6.726-2.194c-0.525-0.792-1.945-2.808-3.277-3.618c-0.665-0.404-1.797-0.815-3.109-1.292  c-1.246-0.452-3.565-1.293-3.892-1.692c-0.318-0.8-0.369-6.224-0.234-10.79c0.013-0.436-0.258-0.829-0.668-0.974  c-0.413-0.145-0.868-0.006-1.13,0.343c-0.12,0.16-12.048,16.214-15.584,37.865c-2.197,13.46-3.464,28.371,3.796,36.912  c4.374,5.146,11.34,7.646,21.299,7.646c7.744,0,16.229-5.271,18.53-11.512c1.354-3.675,0.37-7.175-2.771-9.854  c-2.97-2.533-7.073-2.172-11.419-1.79c-4.932,0.437-10.032,0.886-14.234-2.651c-3.975-3.344-5.497-10.421-6.08-15.375  c0.543,0.687,1.205,1.335,2.006,1.867c1.721,1.14,3.762,1.53,6.078,1.171c0.218,1.012,0.433,2.875-0.236,4.974  c-1.014,3.181-2.085,4.397-2.09,4.402c-0.377,0.404-0.355,1.037,0.048,1.413c0.193,0.181,0.438,0.27,0.683,0.27  c0.267,0,0.534-0.106,0.731-0.317c0.138-0.148,1.382-1.549,2.533-5.16c0.798-2.506,0.555-4.735,0.284-6  c8.195-1.916,15.909-3.43,22.043,2.78c5.208,5.276,2.843,14.488,2.817,14.581c-0.141,0.533,0.177,1.081,0.71,1.223  c0.529,0.145,1.08-0.175,1.223-0.708C73.63,70.3,76.209,60.318,70.19,54.221z"></path></svg>